<!--?xml version="1.0" encoding="UTF-8"?-->
<svg width="512" height="512" viewBox="0 0 128 128" xmlns="http://www.w3.org/2000/svg">
  <defs>
    <filter id="glow" x="-30%" y="-30%" width="160%" height="160%">
      <feGaussianBlur stdDeviation="3" result="blur"></feGaussianBlur>
      <feMerge><feMergeNode in="blur"></feMergeNode><feMergeNode in="SourceGraphic"></feMergeNode></feMerge>
    </filter>
    <linearGradient id="grad" x1="50%" y1="0%" x2="50%" y2="100%">
      <stop offset="0%" stop-color="#FFD36E"></stop>
      <stop offset="100%" stop-color="#FF7B47"></stop>
    </linearGradient>
  </defs>

  <!-- soft shadow -->
  <path d="M64 12 q10 0 16 6 q6 6 6 16 v34 l12 -12 q3 -3 7 0 q3 3 0 7 l-24 24 q-3 3 -7 3 q-4 0 -7 -3 l-24 -24 q-3 -3 0 -7 q3 -3 7 0 l12 12 v-34 q0 -10 6 -16 q6 -6 16 -6z" fill="rgba(0,0,0,0.12)"></path>

  <!-- main arrow -->
  <path d="M64 10 q11 0 17.5 6.5 T88 34 v34 l12 -12 q3 -3 7 0 q3 3 0 7 l-24 24 q-3 3 -7 3 q-4 0 -7 -3 l-24 -24 q-3 -3 0 -7 q3 -3 7 0 l12 12 v-34 q0 -11 6.5 -17.5 T64 10z" fill="url(#grad)" filter="url(#glow)"></path>

  <!-- outline -->
  <path d="M64 10 q11 0 17.5 6.5 T88 34 v34 l12 -12 q3 -3 7 0 q3 3 0 7 l-24 24 q-3 3 -7 3 q-4 0 -7 -3 l-24 -24 q-3 -3 0 -7 q3 -3 7 0 l12 12 v-34 q0 -11 6.5 -17.5 T64 10z" fill="none" stroke="#d45a00" stroke-width="2.5" stroke-linejoin="round" stroke-linecap="round" opacity="0.9"></path>

  <!-- sparkle dots -->
  <circle cx="48" cy="28" r="2.2" fill="#fff" opacity="0.9"></circle>
  <circle cx="82" cy="20" r="1.6" fill="#fff" opacity="0.85"></circle>
</svg>
